<svg width="200" height="150" viewBox="0 0 800 600" fill="none" xmlns="http://www.w3.org/2000/svg" data-reactroot="">
<path d="M721.447 469.756V483.652C721.447 508.2 701.53 528.117 676.982 528.117H54.4655C29.9168 528.117 10 508.2 10 483.652V181.657C10 157.109 29.9168 137.192 54.4655 137.192H71.6031V425.291C71.6031 449.84 91.52 469.756 116.069 469.756H721.447Z" fill="#ff8e3c"></path>
<path d="M38.2483 382.215C37.7851 382.215 36.8588 381.752 36.3956 381.288C35.4692 380.362 35.9323 378.973 36.8587 378.046L63.2601 357.666C64.1865 356.74 65.5761 357.203 66.5024 358.129C67.4288 359.056 66.9656 360.445 66.0392 361.372L39.6378 381.752C39.6378 382.215 38.7115 382.215 38.2483 382.215Z" fill="#eff0f3"></path>
<path d="M38.2483 359.519C37.7851 359.519 36.8588 359.055 36.3956 358.592C35.4692 357.666 35.9323 356.276 36.8587 355.35L63.2601 334.97C64.1865 334.043 65.5761 334.507 66.5024 335.433C67.4288 336.359 66.9656 337.749 66.0392 338.675L39.6378 359.055C39.6378 359.055 38.7115 359.519 38.2483 359.519Z" fill="#eff0f3"></path>
<path d="M38.2483 336.36C37.7851 336.36 36.8588 335.896 36.3956 335.433C35.4692 334.507 35.9323 333.117 36.8587 332.191L63.2601 311.811C64.1865 310.884 65.5761 311.348 66.5024 312.274C67.4288 313.2 66.9656 314.59 66.0392 315.516L39.6378 335.896C39.6378 336.359 38.7115 336.36 38.2483 336.36Z" fill="#eff0f3"></path>
<path d="M38.2483 313.2C37.7851 313.2 36.8588 312.737 36.3956 312.274C35.4692 311.347 35.9323 309.958 36.8587 309.032L63.2601 288.651C64.1865 287.725 65.5761 288.188 66.5024 289.115C67.4288 290.041 66.9656 291.431 66.0392 292.357L39.6378 312.737C39.6378 313.2 38.7115 313.2 38.2483 313.2Z" fill="#eff0f3"></path>
<path d="M38.2483 290.505C37.7851 290.505 36.8588 290.042 36.3956 289.579C35.4692 288.652 35.9323 287.263 36.8587 286.336L63.2601 265.956C64.1865 265.03 65.5761 265.493 66.5024 266.419C67.4288 267.346 66.9656 268.735 66.0392 269.662L39.6378 290.042C39.6378 290.042 38.7115 290.505 38.2483 290.505Z" fill="#eff0f3"></path>
<path d="M38.2483 267.346C37.7851 267.346 36.8588 266.882 36.3956 266.419C35.4692 265.493 35.9323 264.103 36.8587 263.177L63.2601 242.797C64.1865 241.871 65.5761 242.334 66.5024 243.26C67.4288 244.186 66.9656 245.576 66.0392 246.502L39.6378 266.882C39.6378 267.346 38.7115 267.346 38.2483 267.346Z" fill="#eff0f3"></path>
<path d="M38.2483 244.187C37.7851 244.187 36.8588 243.724 36.3956 243.261C35.4692 242.335 35.9323 240.945 36.8587 240.019L63.2601 219.639C64.1865 218.712 65.5761 219.175 66.5024 220.102C67.4288 221.028 66.9656 222.418 66.0392 223.344L39.6378 243.724C39.6378 244.187 38.7115 244.187 38.2483 244.187Z" fill="#eff0f3"></path>
<path d="M38.2483 221.491C37.7851 221.491 36.8588 221.028 36.3956 220.564C35.4692 219.638 35.9323 218.248 36.8587 217.322L63.2601 196.942C64.1865 196.016 65.5761 196.479 66.5024 197.405C67.4288 198.332 66.9656 199.721 66.0392 200.647L39.6378 221.028C39.6378 221.028 38.7115 221.491 38.2483 221.491Z" fill="#eff0f3"></path>
<path d="M38.2483 198.331C37.7851 198.331 36.8588 197.868 36.3956 197.405C35.4692 196.479 35.9323 195.089 36.8587 194.163L63.2601 173.783C64.1865 172.857 65.5761 173.32 66.5024 174.246C67.4288 175.172 66.9656 176.562 66.0392 177.488L39.6378 197.868C39.6378 197.868 38.7115 198.331 38.2483 198.331Z" fill="#eff0f3"></path>
<path d="M38.2483 175.172C37.7851 175.172 36.8588 174.709 36.3956 174.246C35.4692 173.319 35.9323 171.93 36.8587 171.003L63.2601 150.623C64.1865 149.697 65.5761 150.16 66.5024 151.087C67.4288 152.013 66.9656 153.403 66.0392 154.329L39.6378 174.709C39.6378 175.172 38.7115 175.172 38.2483 175.172Z" fill="#eff0f3"></path>
<path d="M38.2483 405.837C37.7851 405.837 36.8588 405.374 36.3956 404.91C35.4692 403.984 35.9323 402.595 36.8587 401.668L63.2601 381.288C64.1865 380.362 65.5761 380.825 66.5024 381.751C67.4288 382.678 66.9656 384.067 66.0392 384.994L39.6378 405.374C39.6378 405.374 38.7115 405.837 38.2483 405.837Z" fill="#eff0f3"></path>
<path d="M38.2483 428.996C37.7851 428.996 36.8588 428.533 36.3956 428.07C35.4692 427.144 35.9323 425.754 36.8587 424.828L63.2601 404.448C64.1865 403.521 65.5761 403.985 66.5024 404.911C67.4288 405.837 66.9656 407.227 66.0392 408.153L39.6378 428.533C39.6378 428.533 38.7115 428.996 38.2483 428.996Z" fill="#eff0f3"></path>
<path d="M38.2483 452.155C37.7851 452.155 36.8588 451.692 36.3956 451.229C35.4692 450.302 35.9323 448.913 36.8587 447.987L63.2601 427.607C64.1865 426.68 65.5761 427.143 66.5024 428.07C67.4288 428.996 66.9656 430.386 66.0392 431.312L39.6378 451.692C39.6378 451.692 38.7115 452.155 38.2483 452.155Z" fill="#eff0f3"></path>
<path d="M38.2483 475.314C37.7851 475.314 36.8588 474.851 36.3956 474.388C35.4692 473.461 35.9323 472.072 36.8587 471.146L63.2601 450.766C64.1865 449.839 65.5761 450.302 66.5024 451.229C67.4288 452.155 66.9656 453.545 66.0392 454.471L39.6378 474.851C39.6378 474.851 38.7115 475.314 38.2483 475.314Z" fill="#eff0f3"></path>
<path d="M45.6664 492.915C45.2032 492.915 44.2767 492.452 43.8135 491.989C42.8872 491.062 43.3504 489.673 44.2767 488.746L70.6782 468.366C71.6045 467.44 72.994 467.903 73.9203 468.829C74.8467 469.756 74.3836 471.145 73.4573 472.072L47.0559 492.452C46.5927 492.915 46.1296 492.915 45.6664 492.915Z" fill="#eff0f3"></path>
<path d="M68.3694 498.474C67.9062 498.474 66.9799 498.01 66.5167 497.547C65.5903 496.621 66.0534 495.231 66.9798 494.305L93.3812 473.925C94.3076 472.998 95.6972 473.462 96.6235 474.388C97.5499 475.314 97.0867 476.704 96.1603 477.63L69.7589 498.01C69.2957 498.474 68.8326 498.474 68.3694 498.474Z" fill="#eff0f3"></path>
<path d="M97.9944 498.474C97.5312 498.474 96.6048 498.01 96.1417 497.547C95.2153 496.621 95.6785 495.231 96.6049 494.305L123.006 473.925C123.933 472.998 125.322 473.462 126.248 474.388C127.175 475.314 126.712 476.704 125.785 477.63L99.3838 498.01C98.9207 498.474 98.4575 498.474 97.9944 498.474Z" fill="#eff0f3"></path>
<path d="M127.655 498.474C127.191 498.474 126.265 498.01 125.802 497.547C124.875 496.621 125.339 495.231 126.265 494.305L152.666 473.925C153.593 472.998 154.982 473.462 155.909 474.388C156.835 475.314 156.372 476.704 155.445 477.63L129.044 498.01C128.581 498.474 128.118 498.474 127.655 498.474Z" fill="#eff0f3"></path>
<path d="M157.291 498.474C156.828 498.474 155.902 498.01 155.439 497.547C154.512 496.621 154.975 495.231 155.902 494.305L182.303 473.925C183.23 472.998 184.619 473.462 185.545 474.388C186.472 475.314 186.009 476.704 185.082 477.63L158.681 498.01C158.218 498.474 157.754 498.474 157.291 498.474Z" fill="#eff0f3"></path>
<path d="M186.94 498.474C186.477 498.474 185.55 498.01 185.087 497.547C184.161 496.621 184.624 495.231 185.55 494.305L211.952 473.925C212.878 472.998 214.267 473.462 215.194 474.388C216.12 475.314 215.657 476.704 214.731 477.63L188.329 498.01C187.866 498.474 187.403 498.474 186.94 498.474Z" fill="#eff0f3"></path>
<path d="M216.6 498.474C216.137 498.474 215.21 498.01 214.747 497.547C213.821 496.621 214.284 495.231 215.21 494.305L241.612 473.925C242.538 472.998 243.928 473.462 244.854 474.388C245.78 475.314 245.317 476.704 244.391 477.63L217.989 498.01C217.526 498.474 217.063 498.474 216.6 498.474Z" fill="#eff0f3"></path>
<path d="M246.229 498.474C245.766 498.474 244.839 498.01 244.376 497.547C243.45 496.621 243.913 495.231 244.839 494.305L271.241 473.925C272.167 472.998 273.556 473.462 274.483 474.388C275.409 475.314 274.946 476.704 274.02 477.63L247.618 498.01C247.155 498.474 246.692 498.474 246.229 498.474Z" fill="#eff0f3"></path>
<path d="M275.862 498.474C275.398 498.474 274.472 498.01 274.009 497.547C273.082 496.621 273.546 495.231 274.472 494.305L300.873 473.925C301.8 472.998 303.189 473.462 304.116 474.388C305.042 475.314 304.579 476.704 303.652 477.63L277.251 498.01C276.788 498.474 276.325 498.474 275.862 498.474Z" fill="#eff0f3"></path>
<path d="M305.518 498.474C305.055 498.474 304.128 498.01 303.665 497.547C302.739 496.621 303.202 495.231 304.128 494.305L330.53 473.925C331.456 472.998 332.846 473.462 333.772 474.388C334.698 475.314 334.235 476.704 333.309 477.63L306.907 498.01C306.444 498.474 305.981 498.474 305.518 498.474Z" fill="#eff0f3"></path>
<path d="M335.162 498.474C334.699 498.474 333.773 498.01 333.31 497.547C332.383 496.621 332.846 495.231 333.773 494.305L360.174 473.925C361.101 472.998 362.49 473.462 363.416 474.388C364.343 475.314 363.88 476.704 362.953 477.63L336.552 498.01C336.552 498.474 336.089 498.474 335.162 498.474Z" fill="#eff0f3"></path>
<path d="M365.268 498.474C364.805 498.474 363.878 498.01 363.415 497.547C362.489 496.621 362.952 495.231 363.878 494.305L390.28 473.925C391.206 472.998 392.596 473.462 393.522 474.388C394.448 475.314 393.985 476.704 393.059 477.63L366.657 498.01C366.194 498.474 365.731 498.474 365.268 498.474Z" fill="#eff0f3"></path>
<path d="M394.905 498.474C394.441 498.474 393.515 498.01 393.052 497.547C392.125 496.621 392.589 495.231 393.515 494.305L419.916 473.925C420.843 472.998 422.232 473.462 423.159 474.388C424.085 475.314 423.622 476.704 422.695 477.63L396.294 498.01C395.831 498.474 395.368 498.474 394.905 498.474Z" fill="#eff0f3"></path>
<path d="M424.553 498.474C424.09 498.474 423.163 498.01 422.7 497.547C421.774 496.621 422.237 495.231 423.163 494.305L449.565 473.925C450.491 472.998 451.881 473.462 452.807 474.388C453.733 475.314 453.27 476.704 452.344 477.63L425.942 498.01C425.479 498.474 425.016 498.474 424.553 498.474Z" fill="#eff0f3"></path>
<path d="M454.19 498.474C453.726 498.474 452.8 498.01 452.337 497.547C451.411 496.621 451.874 495.231 452.8 494.305L479.201 473.925C480.128 472.998 481.517 473.462 482.444 474.388C483.37 475.314 482.907 476.704 481.981 477.63L455.579 498.01C455.116 498.474 454.653 498.474 454.19 498.474Z" fill="#eff0f3"></path>
<path d="M483.842 498.474C483.379 498.474 482.452 498.01 481.989 497.547C481.063 496.621 481.526 495.231 482.453 494.305L508.854 473.925C509.78 472.998 511.17 473.462 512.096 474.388C513.022 475.314 512.559 476.704 511.633 477.63L485.232 498.01C484.768 498.474 484.305 498.474 483.842 498.474Z" fill="#eff0f3"></path>
<path d="M513.479 498.474C513.016 498.474 512.089 498.01 511.626 497.547C510.7 496.621 511.163 495.231 512.089 494.305L538.491 473.925C539.417 472.998 540.806 473.462 541.733 474.388C542.659 475.314 542.196 476.704 541.27 477.63L514.868 498.01C514.405 498.474 513.942 498.474 513.479 498.474Z" fill="#eff0f3"></path>
<path d="M543.131 498.474C542.668 498.474 541.742 498.01 541.278 497.547C540.352 496.621 540.815 495.231 541.741 494.305L568.143 473.925C569.069 472.998 570.459 473.462 571.385 474.388C572.312 475.314 571.848 476.704 570.922 477.63L544.521 498.01C544.057 498.474 543.594 498.474 543.131 498.474Z" fill="#eff0f3"></path>
<path d="M572.768 498.474C572.305 498.474 571.378 498.01 570.915 497.547C569.989 496.621 570.452 495.231 571.378 494.305L597.78 473.925C598.706 472.998 600.096 473.462 601.022 474.388C601.948 475.314 601.485 476.704 600.559 477.63L574.157 498.01C573.694 498.474 573.231 498.474 572.768 498.474Z" fill="#eff0f3"></path>
<path d="M602.408 498.474C601.945 498.474 601.019 498.01 600.556 497.547C599.629 496.621 600.093 495.231 601.019 494.305L627.42 473.925C628.347 472.998 629.736 473.462 630.663 474.388C631.589 475.314 631.126 476.704 630.199 477.63L603.798 498.01C603.335 498.474 602.872 498.474 602.408 498.474Z" fill="#eff0f3"></path>
<path d="M632.069 498.474C631.605 498.474 630.679 498.01 630.216 497.547C629.29 496.621 629.753 495.231 630.679 494.305L657.081 473.925C658.007 472.998 659.396 473.462 660.323 474.388C661.249 475.314 660.786 476.704 659.859 477.63L633.458 498.01C633.458 498.474 632.995 498.474 632.069 498.474Z" fill="#eff0f3"></path>
<path d="M662.174 498.474C661.711 498.474 660.785 498.01 660.321 497.547C659.395 496.621 659.858 495.231 660.785 494.305L687.186 473.925C688.112 472.998 689.502 473.462 690.428 474.388C691.355 475.314 690.891 476.704 689.965 477.63L663.564 498.01C663.1 498.474 662.637 498.474 662.174 498.474Z" fill="#eff0f3"></path>
<path d="M691.807 498.474C691.344 498.474 690.417 498.01 689.954 497.547C689.028 496.621 689.491 495.231 690.417 494.305L716.819 473.925C717.745 472.998 719.135 473.462 720.061 474.388C720.987 475.314 720.524 476.704 719.598 477.63L693.196 498.01C692.733 498.474 692.27 498.474 691.807 498.474Z" fill="#eff0f3"></path>
<path d="M738.127 446.597H139.696C115.147 446.597 95.2305 426.68 95.2305 402.131V118.664C95.2305 94.1155 115.147 74.1986 139.696 74.1986H738.59C763.138 74.1986 783.055 94.1155 783.055 118.664V402.131C783.055 426.68 763.139 446.597 738.127 446.597Z" fill="#d9376e"></path>
<path fill-rule="evenodd" clip-rule="evenodd" d="M139.696 446.597H738.127C763.139 446.597 783.055 426.68 783.055 402.131V118.664C783.055 94.1155 763.138 74.1986 738.59 74.1986C738.815 143.844 746.611 394.027 689.15 409.935C556.729 446.597 279.037 402.131 95.2305 402.131C95.2305 426.68 115.147 446.597 139.696 446.597Z" fill="#1B1B1B" fill-opacity="0.1"></path>
<path d="M738.124 476.704H116.534C88.2802 476.704 65.1211 453.544 65.1211 425.29V123.296C65.1211 95.0418 88.2802 71.8827 116.534 71.8827H738.587C766.841 71.8827 790.001 95.0418 790.001 123.296V425.29C790.001 453.544 766.842 476.704 738.124 476.704ZM116.534 85.7782C95.6911 85.7782 79.0165 102.916 79.0165 123.296V425.29C79.0165 446.134 96.1543 462.808 116.534 462.808H738.587C759.431 462.808 776.105 445.67 776.105 425.29V123.296C776.105 102.453 758.967 85.7782 738.587 85.7782H116.534Z" fill="#ff8e3c"></path>
<path d="M365.729 208.522C365.729 225.659 348.128 235.849 335.622 240.481C323.579 244.65 305.978 252.061 298.104 256.229C295.325 258.082 289.304 259.935 289.304 263.64C289.304 265.493 289.767 265.956 291.157 266.419C295.325 269.198 324.043 283.094 330.064 285.41C345.349 291.894 364.339 301.158 364.339 319.685C364.339 334.97 350.444 341.918 337.012 341.918C327.285 341.918 319.411 337.749 311.537 332.191C292.546 319.222 273.556 307.179 253.639 295.6C242.523 288.652 234.648 276.609 234.648 263.177C234.648 243.723 251.323 233.533 264.755 225.659C279.577 216.859 295.325 208.522 309.221 198.332C318.021 192.31 330.99 184.899 341.643 184.899C353.223 185.362 365.729 196.016 365.729 208.522Z" fill="#eff0f3"></path>
<path d="M520.898 139.044C520.898 171.004 493.57 213.616 478.748 249.281C469.022 272.904 463.463 287.262 456.052 308.569C448.642 328.949 444.01 343.307 433.82 362.298C430.114 369.709 421.777 375.73 412.977 375.73C401.86 375.73 391.207 368.319 391.207 356.74C391.207 335.433 406.955 305.326 412.977 291.431C430.114 252.524 458.832 175.636 465.779 158.035C470.874 144.602 477.822 118.201 495.423 118.201C507.002 117.275 520.898 120.054 520.898 139.044Z" fill="#eff0f3"></path>
<path d="M611.217 206.205C628.818 218.247 650.125 227.511 666.336 240.48C673.747 246.501 676.063 255.765 676.063 264.102C676.063 284.946 661.241 296.062 646.882 302.546C639.008 306.715 631.134 311.347 623.26 315.979C607.049 326.632 585.279 343.306 565.362 343.306C553.319 343.306 542.203 334.506 542.203 320.147C542.203 303.936 550.54 298.841 570.457 289.114C576.942 286.335 617.239 271.977 619.091 269.197C620.481 267.345 621.407 266.418 621.407 264.102C621.407 258.081 605.659 253.912 601.027 252.06C588.985 246.965 579.721 244.186 567.678 238.164C557.488 232.606 544.056 223.806 544.056 210.837C544.056 196.478 557.488 186.751 570.457 186.751C588.058 185.825 599.638 197.867 611.217 206.205Z" fill="#eff0f3"></path>
</svg>
