<svg width="200" height="150" viewBox="0 0 800 600" fill="none" xmlns="http://www.w3.org/2000/svg" data-reactroot="">
<path fill-rule="evenodd" clip-rule="evenodd" d="M648.815 170.186C648.928 170.677 648.622 171.167 648.131 171.28C631.762 175.058 617.878 185.606 607.15 197.335C596.426 209.06 588.925 221.894 585.31 230.103C585.107 230.564 584.568 230.773 584.107 230.57C583.646 230.367 583.437 229.828 583.64 229.367C587.329 220.99 594.936 207.986 605.804 196.104C616.668 184.225 630.857 173.394 647.721 169.503C648.212 169.389 648.702 169.695 648.815 170.186Z" fill="#eff0f3"></path>
<path fill-rule="evenodd" clip-rule="evenodd" d="M646.151 191.621C646.202 192.123 645.837 192.57 645.335 192.621C630.449 194.137 617.208 201.341 606.679 209.785C596.152 218.229 588.399 227.863 584.498 234.127C584.232 234.554 583.669 234.685 583.242 234.419C582.814 234.152 582.683 233.59 582.95 233.162C586.955 226.732 594.843 216.94 605.538 208.362C616.233 199.785 629.798 192.37 645.151 190.806C645.652 190.755 646.099 191.12 646.151 191.621Z" fill="#eff0f3"></path>
<path d="M600.522 189.169C593.004 181.651 578.188 176.507 573.572 180.629C576.46 195.679 585.63 235.629 584.396 228.998C583.163 222.368 593.905 219.554 599.431 218.975C602.052 215.737 596.026 211.972 592.685 210.494C592.685 207.719 597.182 206.382 599.431 206.061C600.356 200.356 596.347 197.387 594.227 196.616C593.918 193.686 598.295 190.431 600.522 189.169Z" fill="#d9376e"></path>
<path d="M238.409 317.012C233.606 326.497 233.33 342.178 238.684 345.281C252.087 337.851 287.196 316.697 281.279 319.934C275.362 323.171 269.343 313.838 267.073 308.768C263.18 307.285 261.478 314.184 261.114 317.819C258.477 318.684 255.806 314.826 254.801 312.789C249.091 313.686 247.518 318.42 247.446 320.675C244.758 321.881 240.301 318.735 238.409 317.012Z" fill="#ff8e3c"></path>
<rect width="28.8832" height="119.594" rx="14.4416" transform="matrix(0.0208519 0.999783 0.999783 -0.0208519 498.553 239.326)" fill="#ff8e3c"></rect>
<path d="M295.467 233.833C341.026 161.969 430.084 136.757 494.382 177.521C558.681 218.284 557.347 313.039 506.927 367.893C447.996 432.007 404.017 462.242 339.719 421.479C275.421 380.715 249.907 305.696 295.467 233.833Z" fill="#ff8e3c"></path>
<path d="M582.641 247.539C577.436 253.035 556.053 263.142 551.532 261.501C550.332 242.874 585.858 213.531 585.858 213.531C585.858 213.531 589.147 240.67 582.641 247.539Z" fill="#d9376e"></path>
<path fill-rule="evenodd" clip-rule="evenodd" d="M258.731 483.194C224.475 460.099 197.362 423.363 207.423 381.052C216.814 341.562 255.984 322.138 283.001 318.455L286.45 343.763C264.864 346.705 238.228 361.914 232.272 386.961C225.872 413.877 242.306 441.316 273.009 462.015C303.4 482.504 343.269 492.928 373.886 487.485C380.83 486.25 387.46 490.879 388.695 497.823C389.929 504.767 385.301 511.398 378.357 512.632C339.796 519.488 293.298 506.499 258.731 483.194Z" fill="#ff8e3c"></path>
<path d="M440.643 158.435C466.838 115.334 500.875 109.881 541.741 134.717C582.606 159.552 596.753 210.458 579.336 238.222C555.947 275.506 507.95 273.092 467.084 248.256C426.218 223.421 416.366 198.383 440.643 158.435Z" fill="#d9376e"></path>
<path d="M436.558 261.746C451.628 261.25 488.467 248.24 505.003 241.797C494.14 225.708 469.268 195.261 456.683 202.185C444.099 209.109 438.023 244.778 436.558 261.746Z" fill="#eff0f3"></path>
<path d="M549.768 157.615C554.451 143.283 536.331 101.35 535.926 83.608C517.094 88.3194 496.417 127.263 496.417 127.263C496.417 127.263 534.321 150.441 549.768 157.615Z" fill="#eff0f3"></path>
<path d="M587.108 250.34C590.077 246.59 588.39 238.93 587.108 235.156C585.166 229.442 569.194 252.386 568.406 255.895C568.199 256.817 583.593 254.78 587.108 250.34Z" fill="#111111"></path>
<rect x="476.703" y="327.894" width="28.8832" height="119.594" rx="14.4416" transform="rotate(-98.8915 476.703 327.894)" fill="#ff8e3c"></rect>
<rect x="380.398" y="440.253" width="28.8832" height="119.594" rx="14.4416" transform="rotate(-98.8915 380.398 440.253)" fill="#ff8e3c"></rect>
<path fill-rule="evenodd" clip-rule="evenodd" d="M496.752 317.563C497.238 317.694 497.739 317.405 497.869 316.918C502.219 300.692 513.249 287.187 525.348 276.878C537.443 266.573 550.532 259.527 558.863 256.203C559.331 256.016 559.559 255.485 559.372 255.017C559.185 254.549 558.654 254.322 558.186 254.508C549.685 257.9 536.422 265.046 524.165 275.49C511.911 285.929 500.589 299.729 496.107 316.446C495.976 316.932 496.265 317.433 496.752 317.563Z" fill="#eff0f3"></path>
<path fill-rule="evenodd" clip-rule="evenodd" d="M518.267 315.653C518.766 315.722 519.227 315.373 519.295 314.874C521.333 300.05 528.998 287.07 537.807 276.845C546.616 266.62 556.516 259.211 562.913 255.533C563.349 255.281 563.5 254.724 563.249 254.287C562.997 253.85 562.44 253.7 562.003 253.951C555.436 257.728 545.374 265.267 536.425 275.654C527.477 286.041 519.59 299.337 517.488 314.625C517.419 315.124 517.768 315.585 518.267 315.653Z" fill="#eff0f3"></path>
<path d="M518.914 262.267C515.896 267.67 533.697 277.008 533.697 277.008C533.697 277.008 534.683 270.213 537.61 269.876C538.824 271.778 547.386 277.007 547.386 277.007C547.386 277.007 548.785 261.234 549.784 264.224C553.045 273.983 563.262 273.983 563.262 273.983C563.262 273.983 560.986 257.175 564.166 251.502C567.209 250.345 568.444 249.598 566.74 249.659C565.631 249.698 564.792 250.384 564.166 251.502C555.168 254.921 530.36 261.926 518.914 262.267Z" fill="#d9376e"></path>
<path d="M539.967 250.466C545.918 253.035 555.28 249.412 555.957 243.092" stroke="black" stroke-width="1.66042" stroke-linejoin="bevel"></path>
<path d="M571.477 219.553C578.103 216.065 579.846 207.347 576.122 202.442" stroke="black" stroke-width="1.66042"></path>
<path d="M590.114 254.771C590.114 250.587 598.314 247.196 602.497 247.196C606.681 247.196 610.072 250.587 610.072 254.771C610.072 258.954 606.681 262.346 602.497 262.346C598.314 262.346 590.114 258.954 590.114 254.771Z" fill="#d9376e"></path>
</svg>
