<svg width="200" height="150" viewBox="0 0 800 600" fill="none" xmlns="http://www.w3.org/2000/svg" data-reactroot="">
<path d="M260.114 268.455L251.533 275.658L197.093 19.2746L209.699 18.3104C214.024 17.9796 217.911 20.938 218.746 25.1944L264.169 256.97C265.008 261.251 263.455 265.65 260.114 268.455Z" fill="#d9376e"></path>
<path d="M355.411 282.19C355.411 282.19 328.723 260.43 320.757 261.001C312.792 261.573 284.829 290.32 287.799 299.373C290.769 308.426 301.619 308.426 301.619 308.426C307.036 308.426 312.067 305.501 314.639 300.733C317.686 295.087 321.968 288.71 324.975 290.624C330.129 293.904 325.791 308.426 329.365 308.426C332.94 308.426 355.411 301.401 355.411 301.401V282.19Z" fill="#B08566"></path>
<path d="M540.406 197.187L510.299 271.797C507.41 280.466 495.628 297.425 486.579 296.155L377.461 286.22" stroke="#CCCCCC" stroke-width="52.9627" stroke-miterlimit="10" stroke-linecap="round"></path>
<path d="M524.253 156.938C525.196 148.957 525.685 141.883 524.987 139.089C523.52 133.186 509.827 134.181 502.823 135.089C500.36 135.404 498.719 135.718 498.719 135.718L501.635 130.671V130.653L501.653 130.636L526.576 87.566L569.803 81.5928L556.582 108.769C552.792 127.981 573.628 157.794 573.628 157.794L519.293 189.441C519.293 189.441 522.524 171.627 524.253 156.938Z" fill="#C79775"></path>
<path d="M545.194 121.379C545.194 121.379 540.287 154.388 524.253 156.938C525.197 148.957 525.686 141.883 524.987 139.089C523.52 133.185 509.827 134.181 502.823 135.089L501.636 130.67V130.653L501.653 130.635L525.563 117.589L545.194 121.379Z" fill="#7D4921"></path>
<path d="M476.624 82.8319C475.672 82.8319 474.755 82.3108 474.291 81.4052C473.631 80.1174 474.141 78.5389 475.428 77.8797L483.32 73.8391C484.606 73.1782 486.186 73.6882 486.846 74.9767C487.506 76.2645 486.996 77.843 485.708 78.5022L477.816 82.5428C477.434 82.7389 477.027 82.8319 476.624 82.8319Z" fill="#383838"></path>
<path d="M482.795 101.837C477.71 101.837 473.475 94.7242 472.875 85.0491C472.6 80.6265 473.173 76.3898 474.49 73.1193C475.976 69.425 478.28 67.2981 480.976 67.1309C486.196 66.8018 490.616 74.0173 491.234 83.9081C491.848 93.7972 488.367 101.501 483.134 101.826C483.02 101.833 482.907 101.837 482.795 101.837ZM481.307 70.6138C481.268 70.6138 481.231 70.6146 481.193 70.6172C479.953 70.6939 478.658 72.1173 477.731 74.4232C476.603 77.2213 476.117 80.9182 476.361 84.8325C476.854 92.7678 480.18 98.5362 482.917 98.3401C485.604 98.1729 488.241 92.0575 487.748 84.1247C487.26 76.3045 483.975 70.6138 481.307 70.6138Z" fill="#eff0f3"></path>
<path d="M494.21 36.814C494.21 36.814 489.402 60.662 498.855 64.0594C508.308 67.4569 555.492 47.386 555.492 47.386L507.54 32.7246L494.21 36.814Z" fill="#91826C"></path>
<path d="M498.288 54.9277C498.288 54.9277 478.062 93.3968 494.081 134.34C495.035 136.778 497.422 138.35 500.038 138.28C509.01 138.043 534.565 132.58 548.026 122.55L551.357 109.382L571.003 78.9514C571.003 78.9514 577.572 51.9895 555.493 47.3878C533.414 42.7861 503.811 37.7416 498.288 54.9277Z" fill="#C79775"></path>
<path d="M491.644 118.646C498.774 120.137 501.641 113.372 501.641 113.372" stroke="#383838" stroke-width="1.65509" stroke-miterlimit="10"></path>
<path d="M580.304 85.0236C585.264 100.149 555.538 119.133 549.512 104.759C549.198 104.008 550.089 101.214 551.241 97.5987C554.088 77.6183 536.658 79.7491 535.977 86.1588C535.802 87.7832 531.349 100.219 526.388 97.2669C523.227 95.3981 524.956 90.5776 524.24 78.1946C519.053 74.1601 516.223 66.5453 514.687 59.7163C503.736 58.389 493.222 56.1533 490.06 53.9702C485.519 50.8439 474.883 36.0158 486.148 15.7386C495.771 -1.56967 571.414 23.9997 572.602 43.1591C589.805 42.0938 578.418 77.5659 579.78 83.3469C579.955 83.9058 580.129 84.4647 580.304 85.0236Z" fill="#d9376e"></path>
<path d="M490.979 81.5947C490.979 81.5947 476.736 102.798 477.409 105.705C478.081 108.613 491.644 106.619 491.644 106.619" fill="#C79775"></path>
<path d="M536.917 91.9296C536.917 91.9296 544.035 79.8049 547.831 89.0238C550.857 96.3723 544.401 109.64 539.988 107.801C535.67 106.003 541.977 97.2236 541.977 97.2236" stroke="#383838" stroke-width="1.65509" stroke-miterlimit="10"></path>
<path d="M512.869 85.2426C512.467 85.2426 512.059 85.1496 511.677 84.9535L501.909 79.9526C500.621 79.2934 500.111 77.7149 500.771 76.4272C501.431 75.1386 503.011 74.6303 504.297 75.2895L514.065 80.2904C515.352 80.9496 515.862 82.5281 515.202 83.8158C514.738 84.7215 513.821 85.2426 512.869 85.2426Z" fill="#383838"></path>
<path d="M503.715 108.59C497.367 108.59 492.004 101.156 491.394 91.346C491.104 86.6709 491.973 82.1843 493.841 78.7109C495.833 75.0123 498.724 72.8632 501.987 72.6602C508.545 72.2662 514.186 79.8212 514.811 89.8894C515.437 99.9584 510.785 108.166 504.221 108.575C504.051 108.585 503.882 108.59 503.715 108.59ZM502.475 75.5836C502.373 75.5836 502.27 75.5871 502.168 75.5939C499.959 75.7312 497.921 77.3327 496.43 80.1035C494.817 83.1002 494.07 87.0282 494.327 91.1635C494.834 99.306 499.284 105.96 504.039 105.641C508.794 105.346 512.384 98.2153 511.878 90.0719C511.383 82.1042 507.114 75.5836 502.475 75.5836Z" fill="#eff0f3"></path>
<path d="M502.379 92.8601C503.844 92.8601 505.031 91.6729 505.031 90.2084C505.031 88.7439 503.844 87.5566 502.379 87.5566C500.915 87.5566 499.728 88.7439 499.728 90.2084C499.728 91.6729 500.915 92.8601 502.379 92.8601Z" fill="#383838"></path>
<path d="M482.054 89.4331C483.304 89.4331 484.318 88.4197 484.318 87.1697C484.318 85.9196 483.304 84.9062 482.054 84.9062C480.804 84.9062 479.791 85.9196 479.791 87.1697C479.791 88.4197 480.804 89.4331 482.054 89.4331Z" fill="#383838"></path>
<path d="M540.406 92.5265C540.406 92.5265 541.718 90.7955 543.49 91.5621" stroke="#383838" stroke-width="1.65509" stroke-miterlimit="10"></path>
<path d="M221.489 306.62H212.757L195.6 191.797L225.603 170.487V175.671L204.332 195.414L221.489 306.62Z" fill="#ff8e3c"></path>
<path d="M447.536 518.82L468.464 582.836C468.464 582.836 368.981 585.26 367.389 581.545C365.797 577.831 413.251 558.271 441.922 560.341L429.639 532.975L447.536 518.82Z" fill="#d9376e"></path>
<path fill-rule="evenodd" clip-rule="evenodd" d="M335.822 366.86C323.613 338.944 349.259 309.356 378.626 317.478L553.762 365.913C567.707 369.77 575.885 384.201 572.029 398.147C568.172 412.092 553.741 420.27 539.795 416.414L398.545 377.35L459.455 507.731C465.579 520.84 459.917 536.431 446.808 542.555C433.699 548.679 418.108 543.017 411.984 529.908L335.952 367.158L335.822 366.86Z" fill="#ff8e3c"></path>
<path fill-rule="evenodd" clip-rule="evenodd" d="M335.822 366.86C323.613 338.944 349.259 309.356 378.626 317.478L553.762 365.913C567.707 369.77 575.885 384.201 572.029 398.147C568.172 412.092 553.741 420.27 539.795 416.414L398.545 377.35L459.455 507.731C465.579 520.84 459.917 536.431 446.808 542.555C433.699 548.679 418.108 543.017 411.984 529.908L335.952 367.158L335.822 366.86Z" fill="black" fill-opacity="0.15"></path>
<path d="M267.306 547.821L222.263 579.521C222.263 579.521 215.539 571.644 206.038 560.362C202.335 555.978 198.213 551.07 193.899 545.9C171.212 518.776 143.337 484.771 144.228 482.536C145.52 479.305 196.292 512.314 219.888 534.303C223.8 537.936 226.944 541.272 229.022 544.084L249.631 528.208L256.792 522.689L258.766 527.422L262.224 535.666L267.306 547.821Z" fill="#d9376e"></path>
<path opacity="0.2" d="M263.253 538.118C263.253 538.118 224.447 552.365 217.411 556.641C210.376 560.917 207.812 562.475 207.812 562.475C204.109 558.091 200.271 553.521 195.957 548.351C203.246 541.988 211.259 537.393 219.889 534.304C223.801 537.937 226.945 541.273 229.023 544.085L249.632 528.209L258.766 527.423L263.253 538.118Z" fill="black"></path>
<path d="M555.953 342.348L611.344 336.725C611.344 336.725 628.336 235.607 611.344 200.91C593.192 174.499 580.853 161.874 573.526 152.93C571.912 150.959 569.193 150.3 566.863 151.33L517.766 173.047C517.766 173.047 493.782 200.366 497.19 234.04C500.598 267.713 497.206 354.445 497.206 354.445L555.953 342.348Z" fill="#E6E6E6"></path>
<path d="M497.82 347.216C497.82 347.216 497.821 347.216 497.821 347.216L497.82 347.216ZM498.034 347.119C498.114 347.089 498.218 347.054 498.35 347.016C498.977 346.831 499.981 346.634 501.342 346.429C504.051 346.021 508.034 345.6 512.917 345.16C519.616 344.555 527.97 343.919 536.989 343.231C541.115 342.917 545.38 342.592 549.689 342.254C563.408 341.18 577.566 339.981 589.052 338.606C594.794 337.918 599.882 337.184 603.92 336.397C607.339 335.73 610.094 335.01 611.85 334.207C611.858 334.244 611.866 334.283 611.874 334.323C611.974 334.855 612.043 335.62 612.073 336.607C612.131 338.576 612.027 341.324 611.743 344.637C611.177 351.258 609.901 360.067 607.825 369.272C605.748 378.48 602.876 388.057 599.127 396.228C595.384 404.386 590.815 411.036 585.387 414.58C577.946 417.417 568.793 417.068 559.156 414.86C549.498 412.647 539.451 408.59 530.331 404.15C521.215 399.713 513.052 394.904 507.166 391.204C504.223 389.355 501.852 387.783 500.217 386.675C499.399 386.121 498.766 385.682 498.338 385.383C498.221 385.302 498.12 385.23 498.034 385.17V347.119ZM611.687 333.69C611.687 333.69 611.688 333.691 611.69 333.694C611.688 333.692 611.687 333.69 611.687 333.69Z" fill="#ff8e3c" stroke="#005B9D" stroke-width="1.65509"></path>
<path fill-rule="evenodd" clip-rule="evenodd" d="M375.049 377.912C384.918 367.42 398.682 361.47 413.087 361.47H568.275C584.673 361.47 597.966 374.763 597.966 391.161C597.966 407.559 584.673 420.852 568.275 420.852H416.183L294.481 550.245C283.246 562.189 264.456 562.765 252.511 551.53C240.566 540.295 239.991 521.505 251.226 509.56L375.049 377.912L375.049 377.912Z" fill="#ff8e3c"></path>
<path fill-rule="evenodd" clip-rule="evenodd" d="M375.049 377.912C384.918 367.42 398.682 361.47 413.087 361.47H568.275C584.673 361.47 597.966 374.763 597.966 391.161C597.966 407.559 584.673 420.852 568.275 420.852H416.183L294.481 550.245C283.246 562.189 264.456 562.765 252.511 551.53C240.566 540.295 239.991 521.505 251.226 509.56L375.049 377.912L375.049 377.912Z" fill="#ff8e3c"></path>
<path fill-rule="evenodd" clip-rule="evenodd" d="M576.469 574.288L574.266 584.877L573.414 584.691L573.395 584.758H498.294C495.4 584.758 493.054 582.413 493.054 579.519C493.054 576.625 495.4 574.279 498.294 574.279H565.768L595.289 432.387H440.958C438.065 432.387 435.719 430.042 435.719 427.148C435.719 424.254 438.065 421.908 440.958 421.908H597.47L608.74 367.736H477.813C472.037 367.736 467.355 363.054 467.355 357.278C467.355 351.502 472.037 346.82 477.813 346.82H613.092L648.291 177.639C648.884 174.786 651.692 172.965 654.539 173.588C657.346 174.201 659.135 176.961 658.55 179.774L576.471 574.279H576.472L576.469 574.288Z" fill="#eff0f3"></path>
<path d="M282.464 314.047H179.133V299.698C179.133 297.544 181.067 295.906 183.191 296.261L279.555 310.619C281.234 310.9 282.464 312.353 282.464 314.056V314.047Z" fill="#ff8e3c"></path>
<path d="M247.714 277.57H247.714C243.362 278.423 239.142 275.586 238.289 271.234L190.757 28.6958C189.904 24.3438 192.741 20.1244 197.093 19.2715V19.2715C201.444 18.4186 205.664 21.2552 206.517 25.6072L254.049 268.145C254.902 272.497 252.066 276.717 247.714 277.57Z" fill="#ff8e3c"></path>
<path d="M362.581 308.425H288.804V313.397H362.581V308.425Z" fill="#ff8e3c"></path>
<path d="M377.46 276.301C377.46 276.301 350.772 254.541 342.806 255.113C334.841 255.684 298.897 296.081 301.867 305.134C304.837 314.187 316.668 308.426 316.668 308.426C322.085 308.426 331.931 305.853 334.504 301.085C337.55 295.439 351.836 308.426 355.41 308.426C362.581 308.426 377.46 295.512 377.46 295.512V276.301Z" fill="#C79775"></path>
<path d="M568.277 212.066L540.655 294.93C537.766 303.599 525.984 320.558 516.935 319.288L392.692 289.825" stroke="#F2F2F2" stroke-width="52.9627" stroke-miterlimit="10" stroke-linecap="round"></path>
<path d="M355.775 585.65C355.775 588.06 353.819 589.999 351.409 589.999C274.98 589.772 218.655 589.091 207.878 588.27C203.215 587.903 199.565 586.523 196.718 584.043C189.976 578.157 189.47 567.853 190.151 563.242C192.002 550.597 207.075 545.288 223.056 539.664C230.898 536.887 239.002 534.04 246.285 530.215C280.884 512.068 307.92 467.899 301.895 439.325C297.074 416.446 270.649 402.823 245.097 389.654C219.161 376.275 178.432 363.648 181.349 341.624C182.135 335.773 184.248 330.044 187.706 324.525H226.706C221.536 329.451 216.262 335.214 214.62 342.357C211.983 353.832 224.977 369.446 249.097 381.899C275.19 395.347 304.759 410.595 310.435 437.526C313.876 453.839 308.863 473.872 296.306 493.939C284.516 512.767 267.767 528.8 250.337 537.952C242.495 542.057 234.094 545.026 225.955 547.89C212.542 552.623 199.879 557.077 198.797 564.499C198.377 567.329 198.727 574.21 202.447 577.459C203.844 578.664 205.835 579.345 208.56 579.555C219.126 580.376 275.208 581.039 351.426 581.266C353.837 581.266 355.793 583.24 355.775 585.65Z" fill="#d9376e"></path>
<path opacity="0.71" d="M426.685 314.047H142V324.526H426.685V314.047Z" fill="#eff0f3"></path>
<path fill-rule="evenodd" clip-rule="evenodd" d="M638.963 101.09L626.17 153L605.862 147.996L629.251 53.0926C630.633 47.4847 636.299 44.059 641.907 45.441V45.441C647.515 46.8231 650.941 52.4895 649.559 58.0974L639.804 97.6792L657.033 100.022L635.483 197.563C635.275 198.505 634.343 199.1 633.401 198.892C632.459 198.684 631.864 197.752 632.072 196.81L652.804 102.972L638.963 101.09Z" fill="#eff0f3"></path>
<path d="M565.358 449.488H582.747L561.606 545.178" stroke="#005B9D" stroke-width="1.34404" stroke-miterlimit="10" stroke-linecap="round"></path>
</svg>
